<?xml version="1.0" encoding="UTF-8"?>
<svg id="Warstwa_1" xmlns="http://www.w3.org/2000/svg" version="1.1" viewBox="0 0 16 9">
  <!-- Generator: Adobe Illustrator 29.5.0, SVG Export Plug-In . SVG Version: 2.1.0 Build 137)  -->
  <defs>
    <style>
      .st0 {
        fill: #fff;
      }
    </style>
  </defs>
  <path class="st0" d="M15.5.9c-.1-.1-.2-.2-.4-.2-.1,0-.3,0-.4,0s-.3,0-.4,0c-.1,0-.3.1-.4.2l-5.2,5.2c-.1.1-.2.2-.4.2-.1,0-.3,0-.4,0s-.3,0-.4,0c-.1,0-.3-.1-.4-.2L2,.9c-.1-.1-.2-.2-.4-.2-.1,0-.3,0-.4,0s-.3,0-.4,0c-.1,0-.3.1-.4.2-.2.2-.3.5-.3.8s.1.6.3.8l5.2,5.2c.6.6,1.5,1,2.4,1s1.8-.4,2.4-1l5.2-5.2c.2-.2.3-.5.3-.8s-.1-.6-.3-.8Z"/>
</svg>